<?xml version="1.0" encoding="UTF-8"?>
<svg xmlns="http://www.w3.org/2000/svg" width="113" height="105" viewBox="0 0 113 105">
	<circle cx="52.099" cy="52.901" r="52.099" fill="#E8EEFF"/>
	<path fill="#36C" d="M27.666 81.114a.65.65 0 0 1-.317-.082c-2.651-1.35-4.943-1.921-7.69-1.921-2.735 0-5.33.64-7.691 1.92a.71.71 0 0 1-.94-.272.685.685 0 0 1 .277-.926 17.5 17.5 0 0 1 8.353-2.085c2.941 0 5.51.64 8.326 2.071.345.177.47.586.29.913a.68.68 0 0 1-.608.382M7.908 88.267a.73.73 0 0 1-.4-.122.674.674 0 0 1-.166-.954 14.2 14.2 0 0 1 5.178-4.456c4.335-2.207 9.886-2.22 14.235-.013a14.3 14.3 0 0 1 5.177 4.428c.221.3.152.736-.165.954a.694.694 0 0 1-.967-.164 12.9 12.9 0 0 0-4.68-4.006c-3.963-2.003-9.03-2.003-12.979.014a13.05 13.05 0 0 0-4.694 4.033c-.11.19-.318.286-.539.286m8.63 16.447a.65.65 0 0 1-.483-.205c-1.202-1.185-1.85-1.948-2.776-3.597-.952-1.676-1.45-3.72-1.45-5.913 0-4.047 3.508-7.345 7.815-7.345s7.815 3.298 7.815 7.345a.68.68 0 0 1-.69.68.68.68 0 0 1-.69-.68c0-3.298-2.886-5.982-6.435-5.982s-6.434 2.684-6.434 5.982c0 1.962.442 3.774 1.284 5.245.884 1.567 1.492 2.235 2.555 3.298a.693.693 0 0 1 0 .967.76.76 0 0 1-.511.205m9.9-2.521c-1.644 0-3.093-.409-4.28-1.213-2.058-1.376-3.287-3.61-3.287-5.981a.68.68 0 0 1 .69-.682c.387 0 .69.3.69.682 0 1.92.995 3.733 2.68 4.85.98.654 2.126.968 3.506.968.332 0 .884-.041 1.436-.136a.687.687 0 0 1 .801.558.68.68 0 0 1-.566.79 9.6 9.6 0 0 1-1.67.164M23.661 105a1 1 0 0 1-.18-.027c-2.195-.6-3.63-1.404-5.136-2.862a9.88 9.88 0 0 1-2.996-7.112c0-2.208 1.906-4.006 4.253-4.006s4.252 1.798 4.252 4.006c0 1.458 1.285 2.643 2.872 2.643 1.588 0 2.872-1.185 2.872-2.643 0-5.137-4.487-9.307-10.01-9.307-3.921 0-7.51 2.153-9.126 5.491-.539 1.104-.815 2.398-.815 3.816 0 1.062.097 2.738.925 4.919a.663.663 0 0 1-.4.872.69.69 0 0 1-.884-.396c-.676-1.785-1.008-3.556-1.008-5.395 0-1.636.318-3.12.94-4.415 1.835-3.802 5.909-6.268 10.368-6.268 6.282 0 11.39 4.782 11.39 10.669 0 2.207-1.905 4.006-4.252 4.006s-4.252-1.799-4.252-4.006c0-1.458-1.284-2.644-2.872-2.644s-2.872 1.186-2.872 2.644c0 2.33.911 4.51 2.582 6.145 1.312 1.281 2.568 1.99 4.515 2.521.373.095.58.477.483.831a.67.67 0 0 1-.649.518M0 26.724V22.8q0-1.587.802-2.714a5.13 5.13 0 0 1 2.067-1.712q2.826-1.253 5.42-1.88a22 22 0 0 1 5.21-.625q1.098 0 2.13.104 1.035.105 2.131.313a8.2 8.2 0 0 0 .907 4.573q1.118 2.15 3.27 3.36v2.506H0Zm27 6.139-2.531-2.506V22.59a5.8 5.8 0 0 1-3.038-2.067q-1.18-1.524-1.18-3.528 0-2.423 1.729-4.134t4.176-1.712 4.177 1.712 1.73 4.134q-.001 1.88-1.076 3.34a5.96 5.96 0 0 1-2.721 2.088l2.109 2.088-2.531 2.506 2.53 2.505zM13.5 12.527q-2.657 0-4.492-1.816-1.837-1.817-1.836-4.447t1.835-4.448Q10.841.001 13.499 0q2.658 0 4.493 1.816t1.835 4.448q0 2.63-1.835 4.447-1.834 1.816-4.493 1.816Zm12.656 5.303q.718 0 1.203-.48t.485-1.19c0-.71-.162-.87-.485-1.19a1.64 1.64 0 0 0-1.203-.48q-.717 0-1.202.48t-.485 1.19c0 .71.162.87.485 1.19q.485.48 1.202.48m52.774 8.385q-1.25 0-1.25-1.281v-3.828q0-2.407 1.219-3.61 1.234-1.218 3.688-1.218h3.812q1.281 0 1.281 1.25 0 1.265-1.281 1.265h-3.781q-1.172 0-1.797.625-.625.61-.625 1.828v3.688q0 1.281-1.266 1.281m28.078 0q-1.25 0-1.25-1.281v-3.688q0-1.218-.64-1.828-.64-.625-1.797-.625H99.54q-1.266 0-1.266-1.265 0-1.25 1.266-1.25h3.828q2.453 0 3.672 1.218 1.234 1.203 1.234 3.61v3.828q0 1.281-1.266 1.281m-24.421 20.64q-2.454 0-3.688-1.218-1.22-1.203-1.219-3.625v-3.813q0-1.28 1.25-1.28 1.266 0 1.266 1.28v3.688q0 1.22.625 1.828.625.625 1.797.625h3.781q1.281 0 1.281 1.266 0 1.25-1.281 1.25h-3.813Zm16.953 0q-1.266 0-1.266-1.25 0-1.265 1.266-1.265h3.781q1.156 0 1.797-.625.64-.61.64-1.828v-3.688q0-1.28 1.25-1.28 1.266 0 1.266 1.28v3.813q0 2.421-1.234 3.625-1.22 1.22-3.672 1.219H99.54ZM87.008 30.513q-.515 0-.859-.328-.328-.344-.328-.875v-2.25q0-.516.328-.86.344-.343.86-.343.53 0 .874.343.345.344.344.86v2.25q0 .531-.344.875-.343.328-.875.328m4.704 3.688q-.579 0-.907-.282t-.328-.781q0-.422.281-.703a.98.98 0 0 1 .72-.297h.53a.28.28 0 0 0 .172-.047q.078-.063.078-.187V26.84q0-.437.282-.719.28-.28.734-.28c.454 0 .547.093.734.28a.97.97 0 0 1 .282.72v4.921q0 1.188-.641 1.813-.626.624-1.797.624h-.141Zm7.156-3.688q-.531 0-.875-.328-.328-.344-.328-.875v-2.25q0-.516.328-.86.343-.343.875-.343a1.17 1.17 0 0 1 1.203 1.203v2.25q0 .531-.344.875a1.2 1.2 0 0 1-.86.328Zm-5.985 8.938a7.6 7.6 0 0 1-2.812-.547 6.16 6.16 0 0 1-2.344-1.641 1.6 1.6 0 0 1-.219-.344 1 1 0 0 1-.078-.39q0-.438.297-.72a.98.98 0 0 1 .719-.296q.281 0 .469.125.187.124.359.297a5.1 5.1 0 0 0 1.64 1.094 5.05 5.05 0 0 0 3.97 0q.968-.422 1.593-1.094.407-.422.813-.422.437 0 .734.297a.95.95 0 0 1 .297.719q0 .234-.078.422a1 1 0 0 1-.219.328 7.3 7.3 0 0 1-2.375 1.609 7.2 7.2 0 0 1-2.766.563"/>
	<path fill="#36C" fill-rule="evenodd" d="M66.209 48.252H63.72v-6.973s0-11.623-11.622-11.623S40.477 41.28 40.477 41.28v6.973H37.99a4.486 4.486 0 0 0-4.486 4.486v18.944a4.486 4.486 0 0 0 4.486 4.463h28.218a4.486 4.486 0 0 0 4.487-4.486V52.74a4.486 4.486 0 0 0-4.486-4.487Zm-14.11 18.595a4.649 4.649 0 1 1 0-9.297 4.649 4.649 0 0 1 0 9.297m6.974-18.595H45.126V42.44c0-3.487 0-8.136 6.973-8.136 6.974 0 6.974 4.65 6.974 8.136v5.81Z" clip-rule="evenodd"/>
</svg>
